<svg width="53" height="59" viewBox="0 0 53 59" fill="none" xmlns="http://www.w3.org/2000/svg">
<path d="M18.3775 52.0691V53.0374L17.5198 52.6077" stroke="#FF0000" stroke-width="1.5" stroke-linecap="round" stroke-linejoin="round"/>
<path d="M15.8318 51.7579L3.16956 45.3875" stroke="#FF0000" stroke-width="1.5" stroke-linecap="round" stroke-linejoin="round" stroke-dasharray="1 3"/>
<path d="M2.32399 44.9608L1.46631 44.5311V43.5627" stroke="#FF0000" stroke-width="1.5" stroke-linecap="round" stroke-linejoin="round"/>
<path d="M1.46631 41.6046V15.1887" stroke="#FF0000" stroke-width="1.5" stroke-linecap="round" stroke-linejoin="round" stroke-dasharray="6.28 6.28"/>
<path d="M1.46692 14.2077V13.2394L2.3246 13.6691" stroke="#FF0000" stroke-width="1.5" stroke-linecap="round" stroke-linejoin="round"/>
<path d="M4.01111 14.5194L16.6734 20.8899" stroke="#FF0000" stroke-width="1.5" stroke-linecap="round" stroke-linejoin="round" stroke-dasharray="1 3"/>
<path d="M17.5198 21.3162L18.3775 21.7458V22.7173" stroke="#FF0000" stroke-width="1.5" stroke-linecap="round" stroke-linejoin="round"/>
<path d="M18.3773 24.6724V51.0913" stroke="#FF0000" stroke-width="1.5" stroke-linecap="round" stroke-linejoin="round" stroke-dasharray="1 3"/>
<path d="M26.4682 32.2924L1.44189 44.532V13.2402L26.4682 1.00061V32.2924Z" stroke="#FF0000" stroke-width="1.5" stroke-miterlimit="10" stroke-linecap="round" stroke-linejoin="round"/>
<path d="M51.494 44.5314V13.2396L26.4677 1V32.2918L32.8895 35.4334" stroke="#FF0000" stroke-width="1.5" stroke-miterlimit="10" stroke-linecap="round" stroke-linejoin="round"/>
<path d="M24.5259 57.5553L49.5522 45.3157" stroke="#FF0000" stroke-width="1.5" stroke-miterlimit="10" stroke-linecap="round" stroke-linejoin="round" stroke-dasharray="1 3"/>
<path d="M18.3773 52.9288L31.3592 46.5802" stroke="#FF0000" stroke-width="1.5" stroke-miterlimit="10" stroke-linecap="round" stroke-linejoin="round" stroke-dasharray="1 3"/>
<path d="M43.4041 25.9117V11.7666" stroke="#FF0000" stroke-width="1.5" stroke-miterlimit="10" stroke-linecap="round" stroke-linejoin="round" stroke-dasharray="1 3"/>
<path d="M32.8897 45.014L40.5596 48.7628V36.0562L32.8897 32.3074V45.014Z" stroke="#FF0000" stroke-width="1.5" stroke-miterlimit="10" stroke-linecap="round" stroke-linejoin="round"/>
<path d="M32.8897 32.307L43.4032 27.8514L51.4942 31.3885L40.5596 36.0558" stroke="#FF0000" stroke-width="1.5" stroke-miterlimit="10" stroke-linecap="round" stroke-linejoin="round"/>
</svg>
