<svg width="55" height="45" viewBox="0 0 55 45" fill="none" xmlns="http://www.w3.org/2000/svg">
<path d="M36.8333 1H1V32.0556H36.8333V1Z" stroke="#FF0000" stroke-width="1.5" stroke-linecap="round" stroke-linejoin="round"/>
<path d="M36.8334 12.9443H46.3889L53.5556 20.111V32.0554H36.8334V12.9443Z" stroke="#FF0000" stroke-width="1.5" stroke-linecap="round" stroke-linejoin="round"/>
<path d="M11.7503 44.0001C15.0487 44.0001 17.7225 41.3263 17.7225 38.0279C17.7225 34.7295 15.0487 32.0557 11.7503 32.0557C8.45193 32.0557 5.77808 34.7295 5.77808 38.0279C5.77808 41.3263 8.45193 44.0001 11.7503 44.0001Z" stroke="#FF0000" stroke-width="1.5" stroke-linecap="round" stroke-linejoin="round"/>
<path d="M42.8056 44.0001C46.104 44.0001 48.7778 41.3263 48.7778 38.0279C48.7778 34.7295 46.104 32.0557 42.8056 32.0557C39.5072 32.0557 36.8334 34.7295 36.8334 38.0279C36.8334 41.3263 39.5072 44.0001 42.8056 44.0001Z" stroke="#FF0000" stroke-width="1.5" stroke-linecap="round" stroke-linejoin="round"/>
</svg>
