<svg width="29" height="24" viewBox="0 0 29 24" fill="none" xmlns="http://www.w3.org/2000/svg">
<path d="M27.0471 12.8473V16.7127C27.0471 17.0936 26.7299 17.4007 26.3433 17.4007H3.26099C2.8713 17.4007 2.55713 17.0907 2.55713 16.7127V1.68804C2.55713 1.30711 2.87432 1 3.26099 1H26.3403C26.7299 1 27.0441 1.31006 27.0441 1.68804V12.8473" stroke="black" stroke-miterlimit="10" stroke-linecap="round" stroke-linejoin="round"/>
<path d="M11.1877 3.56592C10.4294 3.56592 9.76788 3.95866 9.39631 4.5463C9.02777 3.95866 8.36318 3.56592 7.60495 3.56592C6.44495 3.56592 5.50244 4.48429 5.50244 5.62118C5.50244 6.75806 6.44192 7.67643 7.60495 7.67643C8.36318 7.67643 9.02475 7.28369 9.39631 6.69605C9.76485 7.28369 10.4294 7.67643 11.1877 7.67643C12.3477 7.67643 13.2902 6.75806 13.2902 5.62118C13.2902 4.48429 12.3477 3.56592 11.1877 3.56592Z" stroke="black" stroke-miterlimit="10" stroke-linecap="round" stroke-linejoin="round"/>
<path d="M18.6191 6.50488H23.2561" stroke="black" stroke-miterlimit="10" stroke-linecap="round" stroke-linejoin="round"/>
<path d="M18.6191 4.65625H23.2561" stroke="black" stroke-miterlimit="10" stroke-linecap="round" stroke-linejoin="round"/>
<path d="M18.6191 8.35254H23.2561" stroke="black" stroke-miterlimit="10" stroke-linecap="round" stroke-linejoin="round"/>
<path d="M5.84375 13.1389H8.23324" stroke="black" stroke-miterlimit="10" stroke-linecap="round" stroke-linejoin="round"/>
<path d="M10.4688 13.1389H12.8733" stroke="black" stroke-miterlimit="10" stroke-linecap="round" stroke-linejoin="round"/>
<path d="M15.1509 13.1389H17.5102" stroke="black" stroke-miterlimit="10" stroke-linecap="round" stroke-linejoin="round"/>
<path d="M19.7336 13.1389H21.676" stroke="black" stroke-miterlimit="10" stroke-linecap="round" stroke-linejoin="round"/>
<path d="M2.55708 15.1212L1.01343 7.35792C0.937906 6.98289 1.18864 6.62263 1.57228 6.54881L2.52989 6.36572" stroke="black" stroke-miterlimit="10" stroke-linecap="round" stroke-linejoin="round"/>
<path d="M27.2313 13.7444L27.9865 17.5389C28.062 17.914 27.8113 18.2742 27.4276 18.348L4.77128 22.6535C4.38764 22.7273 4.01909 22.4822 3.94357 22.1072L2.99805 17.3529" stroke="black" stroke-miterlimit="10" stroke-linecap="round" stroke-linejoin="round"/>
<path d="M6.50537 19.0805L8.85559 18.6553" stroke="black" stroke-miterlimit="10" stroke-linecap="round" stroke-linejoin="round"/>
<path d="M11.0518 18.2565L13.4171 17.8284" stroke="black" stroke-miterlimit="10" stroke-linecap="round" stroke-linejoin="round"/>
</svg>
