<svg width="36" height="35" viewBox="0 0 36 35" fill="none" xmlns="http://www.w3.org/2000/svg">
<path d="M35.5242 0H0V35H35.5242V0Z" fill="#E13010"/>
<path fill-rule="evenodd" clip-rule="evenodd" d="M28.5644 16.8598V29.993H26.156V28.1162C25.1997 28.7277 24.1731 29.193 23.0841 29.5122C21.9951 29.8314 20.8631 29.993 19.6882 29.993C18.0098 29.993 16.4367 29.6776 14.9613 29.0546C13.4858 28.4277 12.2055 27.5778 11.1165 26.5049C10.0275 25.4319 9.16483 24.1705 8.52858 22.7168C7.89234 21.267 7.57617 19.7133 7.57617 18.0596C7.57617 16.406 7.89234 14.86 8.52858 13.4217C9.16483 11.9795 10.0275 10.7181 11.1165 9.63365C12.2055 8.54915 13.4858 7.69156 14.9613 7.0647C16.4328 6.43785 18.0098 6.12634 19.6882 6.12634C21.3393 6.12634 22.8967 6.434 24.3605 7.04547C25.8242 7.65694 27.1162 8.52223 28.2404 9.6298L26.5542 11.295C25.6447 10.422 24.5947 9.73748 23.412 9.24139C22.2254 8.74529 20.988 8.49916 19.6921 8.49916C18.3494 8.49916 17.0925 8.74529 15.9176 9.24139C14.7427 9.73748 13.7161 10.422 12.8261 11.295C11.9401 12.168 11.2453 13.1833 10.7418 14.337C10.2382 15.4945 9.98843 16.7329 9.98843 18.0558C9.98843 19.3787 10.2382 20.6171 10.7418 21.7708C11.2453 22.9283 11.9401 23.9436 12.8261 24.8166C13.7122 25.6896 14.7427 26.3741 15.9176 26.8702C17.0925 27.3663 18.3494 27.6124 19.6921 27.6124C20.9138 27.6124 22.077 27.3971 23.1778 26.9741C24.2785 26.551 25.2739 25.9588 26.1599 25.205V19.2326H19.2588V16.8598H28.5644V16.8598Z" fill="white"/>
</svg>
