<svg width="26" height="25" viewBox="0 0 26 25" fill="none" xmlns="http://www.w3.org/2000/svg">
<path d="M21.0166 24H4.50476C2.57653 24 1 22.4235 1 20.4952V4.50476C1 2.57653 2.57653 1 4.50476 1H21.0166C22.9449 1 24.5214 2.57653 24.5214 4.50476V20.4952C24.5245 22.4235 22.9449 24 21.0166 24Z" stroke="black" stroke-width="1.5" stroke-miterlimit="10" stroke-linecap="round" stroke-linejoin="round"/>
<path d="M12.7603 18.2335C16.1051 18.2335 18.8165 15.522 18.8165 12.1773C18.8165 8.83255 16.1051 6.12109 12.7603 6.12109C9.41556 6.12109 6.7041 8.83255 6.7041 12.1773C6.7041 15.522 9.41556 18.2335 12.7603 18.2335Z" stroke="black" stroke-width="1.5" stroke-miterlimit="10" stroke-linecap="round" stroke-linejoin="round"/>
<path d="M19.8009 6.43303C20.1723 6.43303 20.4734 6.13191 20.4734 5.76046C20.4734 5.38901 20.1723 5.08789 19.8009 5.08789C19.4294 5.08789 19.1283 5.38901 19.1283 5.76046C19.1283 6.13191 19.4294 6.43303 19.8009 6.43303Z" stroke="black" stroke-width="1.5" stroke-miterlimit="10" stroke-linecap="round" stroke-linejoin="round"/>
</svg>
