<svg width="25" height="21" viewBox="0 0 25 21" fill="none" xmlns="http://www.w3.org/2000/svg">
<path d="M17.2219 2.40894H19.3181C20.0517 2.40894 20.6451 3.00239 20.6451 3.73593V5.48572" stroke="black" stroke-miterlimit="10" stroke-linecap="round" stroke-linejoin="round"/>
<path d="M2.55113 20.2838H2.32699C1.59345 20.2838 1 19.6904 1 18.9569V3.73593C1 3.00239 1.59345 2.40894 2.32699 2.40894H13" stroke="black" stroke-miterlimit="10" stroke-linecap="round" stroke-linejoin="round"/>
<path d="M23.0748 14.5557V18.9569C23.0748 19.6904 22.4814 20.2839 21.7478 20.2839H2.81592" stroke="black" stroke-miterlimit="10" stroke-linecap="round" stroke-linejoin="round"/>
<path d="M1 3.73535C1 5.48515 2.18436 5.48515 2.91535 5.48515H21.7479C22.4815 5.48515 23.0749 6.0786 23.0749 6.81214V10.979" stroke="black" stroke-miterlimit="10" stroke-linecap="round" stroke-linejoin="round"/>
<path d="M18.34 5.48528L16.7074 1L4.65747 5.48528" stroke="black" stroke-miterlimit="10" stroke-linecap="round" stroke-linejoin="round"/>
<path d="M18.4546 13.761C18.4546 14.2016 18.8112 14.5556 19.2493 14.5556H22.973C23.4136 14.5556 23.7677 14.1991 23.7677 13.761V11.7768C23.7677 11.3362 23.4111 10.9822 22.973 10.9822H19.2493C18.8086 10.9822 18.4546 11.3388 18.4546 11.7768V13.761Z" stroke="black" stroke-miterlimit="10" stroke-linecap="round" stroke-linejoin="round"/>
</svg>
