<svg width="95" height="15" viewBox="0 0 95 15" fill="none" xmlns="http://www.w3.org/2000/svg">
<path d="M7.5 0L9.74828 4.40551L14.6329 5.18237L11.1378 8.68199L11.9084 13.5676L7.5 11.325L3.09161 13.5676L3.86221 8.68199L0.367076 5.18237L5.25172 4.40551L7.5 0Z" fill="#FF0000"/>
<path d="M27.5 0L29.7483 4.40551L34.6329 5.18237L31.1378 8.68199L31.9084 13.5676L27.5 11.325L23.0916 13.5676L23.8622 8.68199L20.3671 5.18237L25.2517 4.40551L27.5 0Z" fill="#FF0000"/>
<path d="M47.5 0L49.7483 4.40551L54.6329 5.18237L51.1378 8.68199L51.9084 13.5676L47.5 11.325L43.0916 13.5676L43.8622 8.68199L40.3671 5.18237L45.2517 4.40551L47.5 0Z" fill="#FF0000"/>
<path d="M67.5 0L69.7483 4.40551L74.6329 5.18237L71.1378 8.68199L71.9084 13.5676L67.5 11.325L63.0916 13.5676L63.8622 8.68199L60.3671 5.18237L65.2517 4.40551L67.5 0Z" fill="#FF0000"/>
<path d="M87.5 0L89.7483 4.40551L94.6329 5.18237L91.1378 8.68199L91.9084 13.5676L87.5 11.325L83.0916 13.5676L83.8622 8.68199L80.3671 5.18237L85.2517 4.40551L87.5 0Z" fill="#CACACA"/>
</svg>
